# xmcd CD database file
#
# Track frame offsets:
#	150
#	17117
#	30692
#	42242
#	55892
#	73742
#	90467
#	105317
#	124142
#	139217
#	158793
#	179118
#	193743
#	211218
#	226368
#
# Disc length: 3213 seconds
#
# Revision: 0
# Processed by: cddbd v1.5.2PL0 Copyright (c) Steve Scherf et al.
# Submitted via: CDex 1.70beta2
#
DISCID=d30c8b0f
DTITLE=Jazz à Bichon - Forever More
DYEAR=2017
DGENRE=Jazz
TTITLE0=Snookum
TTITLE1=Forever More
TTITLE2=I Want Somebody To Love
TTITLE3=I Used To Love Her In The Moonlight
TTITLE4=Wylie Avenue Blues
TTITLE5=The Owl's Hoot
TTITLE6=Honey
TTITLE7=Brotherly Love
TTITLE8=Hummin' To Myself
TTITLE9=I'll Never Love You
TTITLE10=I Get The Blues When It Rains
TTITLE11=Call Of The Delta
TTITLE12=Love Dreams
TTITLE13=Nancy
TTITLE14=White Ghost Shgrivers
EXTD=YEAR: 2017
EXTT0=
EXTT1=
EXTT2=
EXTT3=
EXTT4=
EXTT5=
EXTT6=
EXTT7=
EXTT8=
EXTT9=
EXTT10=
EXTT11=
EXTT12=
EXTT13=
EXTT14=
PLAYORDER=
